<svg width="171" height="53" viewBox="0 0 171 53" fill="none" xmlns="http://www.w3.org/2000/svg">
<path d="M62.2 25.264C60.936 25.264 59.792 24.928 58.768 24.256C57.744 23.584 56.928 22.608 56.32 21.328C55.728 20.032 55.432 18.456 55.432 16.6C55.432 14.744 55.728 13.176 56.32 11.896C56.928 10.6 57.744 9.616 58.768 8.944C59.792 8.272 60.936 7.936 62.2 7.936C63.464 7.936 64.608 8.272 65.632 8.944C66.656 9.616 67.464 10.6 68.056 11.896C68.664 13.176 68.968 14.744 68.968 16.6C68.968 18.456 68.664 20.032 68.056 21.328C67.464 22.608 66.656 23.584 65.632 24.256C64.608 24.928 63.464 25.264 62.2 25.264ZM62.2 21.592C62.696 21.592 63.136 21.416 63.52 21.064C63.92 20.712 64.232 20.168 64.456 19.432C64.696 18.696 64.816 17.752 64.816 16.6C64.816 15.448 64.696 14.504 64.456 13.768C64.232 13.032 63.92 12.488 63.52 12.136C63.136 11.784 62.696 11.608 62.2 11.608C61.704 11.608 61.256 11.784 60.856 12.136C60.472 12.488 60.16 13.032 59.92 13.768C59.696 14.504 59.584 15.448 59.584 16.6C59.584 17.752 59.696 18.696 59.92 19.432C60.16 20.168 60.472 20.712 60.856 21.064C61.256 21.416 61.704 21.592 62.2 21.592ZM77.0466 25.24C75.7666 25.24 74.6146 24.96 73.5906 24.4C72.5666 23.824 71.7586 23.056 71.1666 22.096C70.5746 21.12 70.2786 20.032 70.2786 18.832C70.2786 17.616 70.5746 16.528 71.1666 15.568C71.7586 14.608 72.5666 13.848 73.5906 13.288C74.6146 12.712 75.7666 12.424 77.0466 12.424C78.3426 12.424 79.5106 12.696 80.5506 13.24C81.5906 13.784 82.3986 14.504 82.9746 15.4L80.0466 17.536C79.7746 16.976 79.3746 16.536 78.8466 16.216C78.3186 15.896 77.7266 15.736 77.0706 15.736C76.5106 15.736 76.0066 15.872 75.5586 16.144C75.1266 16.416 74.7826 16.784 74.5266 17.248C74.2706 17.712 74.1426 18.24 74.1426 18.832C74.1426 19.424 74.2706 19.952 74.5266 20.416C74.7826 20.88 75.1266 21.248 75.5586 21.52C76.0066 21.792 76.5106 21.928 77.0706 21.928C77.7266 21.928 78.3186 21.768 78.8466 21.448C79.3746 21.112 79.7746 20.672 80.0466 20.128L82.9746 22.264C82.3986 23.16 81.5906 23.88 80.5506 24.424C79.5106 24.968 78.3426 25.24 77.0466 25.24ZM91.3413 25.24C90.0933 25.24 88.9653 24.96 87.9573 24.4C86.9653 23.824 86.1733 23.056 85.5813 22.096C84.9893 21.12 84.6933 20.032 84.6933 18.832C84.6933 17.616 84.9733 16.528 85.5333 15.568C86.0933 14.608 86.8533 13.848 87.8133 13.288C88.7733 12.712 89.8533 12.424 91.0533 12.424C92.3013 12.424 93.3973 12.704 94.3413 13.264C95.3013 13.824 96.0453 14.6 96.5733 15.592C97.1173 16.568 97.3893 17.696 97.3893 18.976V19.816H88.5093C88.6373 20.28 88.8453 20.688 89.1333 21.04C89.4213 21.392 89.7733 21.664 90.1893 21.856C90.6053 22.048 91.0533 22.144 91.5333 22.144C92.0933 22.144 92.5973 22.04 93.0453 21.832C93.5093 21.624 93.8933 21.328 94.1973 20.944L96.6933 23.176C95.9093 23.928 95.0853 24.464 94.2213 24.784C93.3733 25.088 92.4133 25.24 91.3413 25.24ZM88.5333 17.608H93.7893C93.6773 17.144 93.5013 16.752 93.2613 16.432C93.0213 16.112 92.7253 15.872 92.3733 15.712C92.0213 15.536 91.6213 15.448 91.1733 15.448C90.7413 15.448 90.3413 15.536 89.9733 15.712C89.6213 15.872 89.3253 16.112 89.0853 16.432C88.8453 16.752 88.6613 17.144 88.5333 17.608ZM103.572 25.192C102.74 25.192 101.996 25.032 101.34 24.712C100.7 24.392 100.196 23.952 99.8279 23.392C99.4759 22.832 99.2999 22.184 99.2999 21.448C99.2999 20.68 99.4919 20.032 99.8759 19.504C100.26 18.96 100.812 18.552 101.532 18.28C102.252 17.992 103.116 17.848 104.124 17.848C104.572 17.848 105.028 17.896 105.492 17.992C105.956 18.088 106.46 18.248 107.004 18.472V17.416C107.004 16.808 106.804 16.36 106.404 16.072C106.004 15.768 105.388 15.616 104.556 15.616C104.092 15.616 103.572 15.696 102.996 15.856C102.436 16 101.796 16.224 101.076 16.528L99.6839 13.768C100.724 13.304 101.708 12.968 102.636 12.76C103.58 12.536 104.508 12.424 105.42 12.424C107.132 12.424 108.46 12.832 109.404 13.648C110.364 14.464 110.844 15.608 110.844 17.08V25H107.004V23.824C106.46 24.304 105.916 24.656 105.372 24.88C104.828 25.088 104.228 25.192 103.572 25.192ZM102.876 21.376C102.876 21.776 103.044 22.088 103.38 22.312C103.716 22.52 104.18 22.624 104.772 22.624C105.188 22.624 105.58 22.568 105.948 22.456C106.332 22.328 106.684 22.152 107.004 21.928V20.464C106.652 20.368 106.292 20.296 105.924 20.248C105.572 20.184 105.22 20.152 104.868 20.152C104.244 20.152 103.756 20.256 103.404 20.464C103.052 20.672 102.876 20.976 102.876 21.376ZM113.979 25V12.616H117.867V14.296C118.827 13.048 120.051 12.424 121.539 12.424C122.339 12.424 123.043 12.608 123.651 12.976C124.275 13.328 124.763 13.824 125.115 14.464C125.467 15.088 125.643 15.816 125.643 16.648V25H121.755V17.776C121.755 17.072 121.563 16.512 121.179 16.096C120.811 15.68 120.315 15.472 119.691 15.472C119.339 15.472 119.011 15.536 118.707 15.664C118.403 15.776 118.123 15.96 117.867 16.216V25H113.979ZM134.177 10.744C133.505 10.744 132.929 10.504 132.449 10.024C131.969 9.544 131.729 8.968 131.729 8.296C131.729 7.624 131.969 7.048 132.449 6.568C132.929 6.088 133.505 5.848 134.177 5.848C134.849 5.848 135.425 6.088 135.905 6.568C136.385 7.048 136.625 7.624 136.625 8.296C136.625 8.968 136.385 9.544 135.905 10.024C135.425 10.504 134.849 10.744 134.177 10.744ZM137.441 25.24C135.729 25.24 134.433 24.832 133.553 24.016C132.673 23.2 132.233 21.992 132.233 20.392V15.616H127.961V12.616H136.121V19.984C136.121 20.672 136.289 21.176 136.625 21.496C136.961 21.816 137.497 21.976 138.233 21.976C138.585 21.976 138.921 21.944 139.241 21.88C139.577 21.816 139.945 21.704 140.345 21.544V24.688C140.089 24.816 139.673 24.936 139.097 25.048C138.521 25.176 137.969 25.24 137.441 25.24ZM149 25.24C147.72 25.24 146.568 24.96 145.544 24.4C144.52 23.824 143.712 23.056 143.12 22.096C142.528 21.12 142.232 20.032 142.232 18.832C142.232 17.616 142.528 16.528 143.12 15.568C143.712 14.608 144.52 13.848 145.544 13.288C146.568 12.712 147.72 12.424 149 12.424C150.296 12.424 151.464 12.696 152.504 13.24C153.544 13.784 154.352 14.504 154.928 15.4L152 17.536C151.728 16.976 151.328 16.536 150.8 16.216C150.272 15.896 149.68 15.736 149.024 15.736C148.464 15.736 147.96 15.872 147.512 16.144C147.08 16.416 146.736 16.784 146.48 17.248C146.224 17.712 146.096 18.24 146.096 18.832C146.096 19.424 146.224 19.952 146.48 20.416C146.736 20.88 147.08 21.248 147.512 21.52C147.96 21.792 148.464 21.928 149.024 21.928C149.68 21.928 150.272 21.768 150.8 21.448C151.328 21.112 151.728 20.672 152 20.128L154.928 22.264C154.352 23.16 153.544 23.88 152.504 24.424C151.464 24.968 150.296 25.24 149 25.24ZM161.134 25.192C160.302 25.192 159.558 25.032 158.902 24.712C158.262 24.392 157.758 23.952 157.39 23.392C157.038 22.832 156.862 22.184 156.862 21.448C156.862 20.68 157.054 20.032 157.438 19.504C157.822 18.96 158.374 18.552 159.094 18.28C159.814 17.992 160.678 17.848 161.686 17.848C162.134 17.848 162.59 17.896 163.054 17.992C163.518 18.088 164.022 18.248 164.566 18.472V17.416C164.566 16.808 164.366 16.36 163.966 16.072C163.566 15.768 162.95 15.616 162.118 15.616C161.654 15.616 161.134 15.696 160.558 15.856C159.998 16 159.358 16.224 158.638 16.528L157.246 13.768C158.286 13.304 159.27 12.968 160.198 12.76C161.142 12.536 162.07 12.424 162.982 12.424C164.694 12.424 166.022 12.832 166.966 13.648C167.926 14.464 168.406 15.608 168.406 17.08V25H164.566V23.824C164.022 24.304 163.478 24.656 162.934 24.88C162.39 25.088 161.79 25.192 161.134 25.192ZM160.438 21.376C160.438 21.776 160.606 22.088 160.942 22.312C161.278 22.52 161.742 22.624 162.334 22.624C162.75 22.624 163.142 22.568 163.51 22.456C163.894 22.328 164.246 22.152 164.566 21.928V20.464C164.214 20.368 163.854 20.296 163.486 20.248C163.134 20.184 162.782 20.152 162.43 20.152C161.806 20.152 161.318 20.256 160.966 20.464C160.614 20.672 160.438 20.976 160.438 21.376Z" fill="white"/>
<mask id="mask0_514_69" style="mask-type:alpha" maskUnits="userSpaceOnUse" x="0" y="6" width="61" height="47">
<path d="M29.5 10.8589C22.7 2.05893 7 7.19227 0 10.8589V27.8589L29.5 52.8589L57 42.8589L61 10.8589C53.3333 14.5256 36.3 19.6589 29.5 10.8589Z" fill="#C4C4C4"/>
</mask>
<g mask="url(#mask0_514_69)">
<circle cx="30.5" cy="11.3589" r="16" fill="white"/>
</g>
</svg>
